<?xml version="1.0" encoding="utf-8"?>
<!-- Generator: Adobe Illustrator 23.0.5, SVG Export Plug-In . SVG Version: 6.00 Build 0)  -->
<svg version="1.1" id="Calque_1" xmlns="http://www.w3.org/2000/svg" xmlns:xlink="http://www.w3.org/1999/xlink" x="0px" y="0px"
	 width="109px" height="112px" viewBox="0 0 109 112" style="enable-background:new 0 0 109 112;" xml:space="preserve">
<style type="text/css">
	.st0{fill:#E20613;}
	.st1{fill:#FFFDFD;}
</style>
<g>
	<path class="st0" d="M14.2,108.3c-1,0-2-0.3-2.9-0.8c-1.8-1-2.9-2.9-2.9-5V9.5c0-2.1,1.1-4,2.9-5c0.9-0.5,1.9-0.8,2.9-0.8
		c1,0,2,0.3,2.9,0.8L97.7,51c1.8,1,2.9,2.9,2.9,5c0,2.1-1.1,3.9-2.9,5l-80.6,46.5C16.2,108,15.2,108.3,14.2,108.3"/>
	<path class="st1" d="M41.5,44.3c-6.2,0-11.1,5-11.1,11.1h3.2c0-4.4,3.6-8,8-8s8,3.6,8,8h3.2C52.6,49.3,47.7,44.3,41.5,44.3z
		 M43.1,59.1c1.4-0.6,2.4-2,2.4-3.6c0-2.2-1.8-4-4-4s-4,1.8-4,4c0,1.6,1,3,2.4,3.6v5.3l-5.4,5.4l2.2,2.2l4.8-4.8l4.8,4.8l2.2-2.2
		l-5.4-5.4V59.1z M41.5,37.9c-9.7,0-17.5,7.8-17.5,17.5h3.2c0-7.9,6.4-14.3,14.3-14.3s14.3,6.4,14.3,14.3H59
		C59,45.8,51.2,37.9,41.5,37.9z"/>
</g>
</svg>
