<?xml version="1.0" encoding="utf-8"?>
<!-- Generator: Adobe Illustrator 23.0.5, SVG Export Plug-In . SVG Version: 6.00 Build 0)  -->
<svg version="1.1" id="Calque_1" xmlns="http://www.w3.org/2000/svg" xmlns:xlink="http://www.w3.org/1999/xlink" x="0px" y="0px"
	 width="75px" height="74px" viewBox="0 0 75 74" style="enable-background:new 0 0 75 74;" xml:space="preserve">
<style type="text/css">
	.st0{fill:#E20613;}
	.st1{fill:#FFFFFF;}
</style>
<g>
	<path class="st0" d="M14.65,70.29c-0.63,0-1.26-0.16-1.83-0.49C11.7,69.15,11,67.94,11,66.63V7.46c0-1.3,0.7-2.51,1.83-3.16
		c0.57-0.33,1.2-0.49,1.83-0.49c0.63,0,1.26,0.17,1.82,0.49l51.24,29.58c1.13,0.65,1.83,1.86,1.83,3.16c0,1.31-0.7,2.51-1.83,3.16
		L16.48,69.8C15.91,70.12,15.28,70.29,14.65,70.29"/>
	<path class="st1" d="M15.69,41.84h3.11c2.87,0,4.06-1.65,4.06-4v-1.26c0-2.4-1.36-3.81-4.17-3.81h-3V41.84z M17.25,40.53v-6.46
		h1.44c1.69,0,2.58,0.83,2.58,2.58v1.1c0,1.8-0.76,2.78-2.47,2.78H17.25z"/>
	<path class="st1" d="M23.96,41.84h1.3c1.78,0,2.82-1.04,2.82-2.8v-6.28h-3.74v1.31h2.19v4.97c0,0.97-0.45,1.49-1.34,1.49h-1.22
		V41.84z"/>
	<path class="st1" d="M32.55,41.84h3.14v-1.31h-2.85c-0.76,0-1.1-0.37-1.1-1.25v-1.49h3.49v-1.32h-3.49v-2.39h3.88v-1.31h-5.44v6.62
		C30.18,41,30.98,41.84,32.55,41.84"/>
	<path class="st1" d="M36.97,41.84h6.49v-1.31h-4.34c1.24-1.63,3.54-5.27,4.28-7.04v-0.73h-6.23v1.31h4.22
		c-0.75,1.8-3.15,5.33-4.43,6.97V41.84z"/>
	<path class="st1" d="M44.47,41.84h6.5v-1.31h-4.34c1.23-1.63,3.54-5.27,4.28-7.04v-0.73h-6.23v1.31h4.22
		c-0.75,1.8-3.14,5.33-4.43,6.97V41.84z"/>
	<polygon class="st1" points="54.57,41.84 56.11,41.84 56.11,38.22 59.08,32.86 59.08,32.77 57.58,32.77 55.4,36.93 53.27,32.77 
		51.66,32.77 51.66,32.86 54.57,38.27 	"/>
	<rect x="17.6" y="52.9" class="st1" width="1.06" height="1.07"/>
	<rect x="19.43" y="52.9" class="st1" width="1.06" height="1.07"/>
	<path class="st1" d="M25.57,47.62v2.03c0,1.74-0.76,2.46-2.42,2.46v-0.93c0.9,0,1.34-0.44,1.34-1.37v-2.19H25.57z M25.56,46.73
		H24.5v-1.07h1.06V46.73z"/>
	<path class="st1" d="M29.41,50.5h-1.26c-0.52,0-0.92-0.16-1.2-0.5c-0.26-0.31-0.39-0.72-0.39-1.26v-2.97h1.07v2.54
		c0,0.47,0.1,0.78,0.31,0.92c0.15,0.11,0.42,0.16,0.83,0.16h0.64V50.5z"/>
	<path class="st1" d="M35.81,49.83v0.67h-6.8v-1.1h5.63c0-0.6-0.17-1.11-0.5-1.53c-0.4-0.49-0.95-0.73-1.66-0.73
		c-0.24,0-0.51,0.06-0.81,0.18c-0.35,0.15-0.64,0.35-0.87,0.61c-0.1-0.2-0.28-0.48-0.52-0.85c0.3-0.28,0.64-0.51,1.04-0.68
		c0.42-0.18,0.85-0.27,1.27-0.27c0.71,0,1.33,0.17,1.86,0.53C35.36,47.26,35.81,48.31,35.81,49.83 M33.1,52.36h-1.06v-1.08h1.06
		V52.36z"/>
	<path class="st1" d="M22.32,49.7v-1.03h-2.38c0.18-0.43,0.45-0.74,0.79-0.91c0.28-0.14,0.68-0.21,1.21-0.21v-1
		c-2.08,0-3.25,1.12-3.25,3.17h2.55h1.08V49.7z"/>
	<path class="st1" d="M21.37,48.67c-0.12,1.5-0.9,2.4-2.3,2.4c-0.72,0-1.3-0.22-1.69-0.67c-0.38-0.42-0.58-1-0.58-1.71v-0.95h-1.08
		v1.07c0,0.94,0.32,1.73,0.96,2.36c0.64,0.63,1.43,0.95,2.37,0.95h0.07c0.94,0,1.72-0.32,2.35-0.95c0.42-0.4,0.7-0.88,0.84-1.41
		c0.06-0.21,0.16-0.66,0.16-1.08L21.37,48.67z"/>
</g>
</svg>
